<?xml version="1.0" encoding="UTF-8" standalone="no"?>
<svg
   xmlns:dc="http://purl.org/dc/elements/1.1/"
   xmlns:cc="http://web.resource.org/cc/"
   xmlns:rdf="http://www.w3.org/1999/02/22-rdf-syntax-ns#"
   xmlns:svg="http://www.w3.org/2000/svg"
   xmlns="http://www.w3.org/2000/svg"
   xmlns:sodipodi="http://sodipodi.sourceforge.net/DTD/sodipodi-0.dtd"
   xmlns:inkscape="http://www.inkscape.org/namespaces/inkscape"
   width="3000"
   height="2000"
   viewBox="0 -410 3080 1900"
   id="svg2"
   sodipodi:version="0.32"
   inkscape:version="0.45.1"
   sodipodi:docname="Mu_uc_lc.svg"
   inkscape:output_extension="org.inkscape.output.svg.inkscape"
   sodipodi:docbase="C:\Documents and Settings\Flanker\Desktop"
   version="1.0">
  <metadata
     id="metadata15">
    <rdf:RDF>
      <cc:Work
         rdf:about="">
        <dc:format>image/svg+xml</dc:format>
        <dc:type
           rdf:resource="http://purl.org/dc/dcmitype/StillImage" />
      </cc:Work>
    </rdf:RDF>
  </metadata>
  <defs
     id="defs13" />
  <sodipodi:namedview
     inkscape:window-height="1005"
     inkscape:window-width="1280"
     inkscape:pageshadow="2"
     inkscape:pageopacity="0.0"
     guidetolerance="10.0"
     gridtolerance="10.0"
     objecttolerance="10.0"
     borderopacity="1.0"
     bordercolor="#666666"
     pagecolor="#ffffff"
     id="base"
     inkscape:zoom="0.19947368"
     inkscape:cx="1540"
     inkscape:cy="1351.0554"
     inkscape:window-x="-4"
     inkscape:window-y="-4"
     inkscape:current-layer="svg2"
     width="3000px"
     height="2000px"
     inkscape:showpageshadow="false" />
  <text
     xml:space="preserve"
     style="font-size:12px;font-style:normal;font-weight:normal;fill:#000000;fill-opacity:1;stroke:none;stroke-width:1px;stroke-linecap:butt;stroke-linejoin:miter;stroke-opacity:1;font-family:Lello"
     x="-471.24011"
     y="-946.41162"
     id="text2171"><tspan
       sodipodi:role="line"
       id="tspan2173"
       x="-471.24011"
       y="-946.41162"></tspan></text>
  <path
     style="font-size:2050.27807617px;font-style:normal;font-weight:normal;fill:#000000;fill-opacity:1;stroke:none;stroke-width:1px;stroke-linecap:butt;stroke-linejoin:miter;stroke-opacity:1;font-family:Times New Roman"
     d="M 1297.7308,304.73862 C 1391.8343,324.76154 1462.2458,356.7971 1508.9655,400.84541 C 1573.7029,462.2475 1606.0721,537.33085 1606.0734,626.09568 C 1606.0721,693.50422 1584.7151,758.0759 1542.0022,819.81092 C 1499.2869,881.5463 1440.7219,926.59631 1366.307,954.96109 C 1291.89,983.32595 1178.2639,997.50836 1025.4282,997.50836 L 384.71635,997.50836 L 384.71635,960.46721 L 435.77308,960.46721 C 492.50263,960.46724 533.2145,942.44724 557.90878,906.40714 C 573.25895,883.04797 580.93414,833.3261 580.93437,757.2414 L 580.93437,-119.73301 C 580.93414,-203.82525 571.25673,-256.88415 551.90211,-278.90987 C 525.87301,-308.27453 487.16337,-322.9575 435.77308,-322.95882 L 384.71635,-322.95882 L 384.71635,-359.99997 L 971.36818,-359.99997 C 1080.8224,-359.99862 1168.5865,-351.98973 1234.6607,-335.97328 C 1334.771,-311.94527 1411.1891,-269.39804 1463.9155,-208.33145 C 1516.6395,-147.26246 1543.0021,-77.017811 1543.0033,2.402694 C 1543.0021,70.47926 1522.3125,131.3802 1480.9344,185.1057 C 1439.554,238.83282 1378.4862,278.71042 1297.7308,304.73862 L 1297.7308,304.73862 z M 773.14794,250.67855 C 797.84159,255.35115 826.03956,258.85504 857.74193,261.19023 C 889.44328,263.5269 924.31533,264.69486 962.35817,264.69413 C 1059.7991,264.69486 1133.047,254.18319 1182.1023,233.15909 C 1231.156,212.13651 1268.6976,179.9341 1294.7275,136.55175 C 1320.7554,93.171117 1333.7699,45.785181 1333.7708,-5.6062047 C 1333.7699,-85.026701 1301.4006,-152.76857 1236.663,-208.83201 C 1171.9235,-264.89304 1077.4854,-292.92416 953.34816,-292.92545 C 886.6068,-292.92416 826.54012,-285.58267 773.14794,-270.90098 L 773.14794,250.67855 z M 773.14794,899.39935 C 850.56679,917.41945 926.98496,926.42946 1002.4027,926.42939 C 1123.2028,926.42946 1215.305,899.2326 1278.7097,844.83873 C 1342.1125,790.44517 1373.8143,723.20385 1373.8153,643.11459 C 1373.8143,590.38975 1359.4651,539.66678 1330.7675,490.94552 C 1302.068,442.22527 1255.3495,403.84934 1190.6118,375.8176 C 1125.8724,347.7871 1045.7835,333.77154 950.34482,333.77088 C 908.96495,333.77154 873.59235,334.43895 844.22691,335.7731 C 814.86049,337.10858 791.16752,339.44451 773.14794,342.78089 L 773.14794,899.39935 z M 1995.5062,1435.9956 L 1830.3226,1435.9956 C 1854.3492,1323.2033 1866.3625,1221.0899 1866.3627,1129.6552 L 1866.3627,39.443851 C 1866.3625,-74.014477 1876.5405,-158.44153 1896.8966,-213.83757 C 1917.2523,-269.23119 1956.9631,-318.11879 2016.029,-360.50053 C 2075.0942,-402.87955 2149.0096,-424.06974 2237.7753,-424.07116 C 2343.2252,-424.06974 2431.8236,-396.20548 2503.5707,-340.47828 C 2575.3162,-284.74841 2611.1893,-205.49377 2611.1902,-102.7141 C 2611.1893,17.420359 2554.126,115.86297 2440,192.61404 C 2610.1882,272.70375 2695.2827,398.51008 2695.2837,570.03339 C 2695.2827,663.47088 2672.7577,747.06367 2627.7086,820.81203 C 2582.6577,894.56075 2530.5999,947.11909 2471.5351,978.48723 C 2412.4687,1009.8554 2341.8904,1025.5395 2259.7998,1025.5395 C 2166.3622,1025.5395 2090.2777,990.50058 2031.5462,920.42271 L 2031.5462,1106.6296 C 2031.5459,1234.7717 2019.5325,1344.5603 1995.5062,1435.9956 L 1995.5062,1435.9956 z M 2031.5462,830.3226 C 2083.6037,916.41834 2156.3511,959.46613 2249.7887,959.46609 C 2339.8882,959.46613 2405.9615,926.59631 2448.0089,860.85653 C 2490.0549,795.11702 2511.0782,715.19496 2511.079,621.09012 C 2511.0782,549.01048 2497.2295,475.4288 2469.5328,400.34485 C 2441.8347,325.2621 2406.2952,268.0319 2362.9144,228.65408 C 2322.8693,238.66597 2286.8293,243.67152 2254.7942,243.67077 C 2187.3855,243.67152 2153.6815,225.98522 2153.6819,190.61181 C 2153.6815,158.57706 2182.0463,142.55928 2238.7764,142.55842 C 2274.1485,142.55928 2318.1974,150.56817 2370.9233,166.58512 C 2418.3086,86.497042 2442.0015,-0.59964493 2442.0023,-94.705203 C 2442.0015,-178.79746 2423.481,-243.20229 2386.4405,-287.91989 C 2349.3987,-332.63491 2301.1785,-354.99306 2241.7798,-354.99441 C 2194.3933,-354.99306 2153.8483,-341.64491 2120.1446,-314.94992 C 2086.4402,-288.2523 2063.2477,-256.38359 2050.5673,-219.34369 C 2037.8863,-182.30135 2031.5459,-121.73412 2031.5462,-37.6418 L 2031.5462,830.3226 z "
     id="text2175" />
</svg>
